<svg width="21" height="21" viewBox="0 0 21 21" fill="none" xmlns="http://www.w3.org/2000/svg">
<g clip-path="url(#clip0_25_371)">
<path d="M10.5 0.409912C4.97833 0.409912 0.5 5.0006 0.5 10.6627C0.5 15.1927 3.365 19.0358 7.33917 20.3918C7.83833 20.4866 8 20.1688 8 19.8988V17.99C5.21833 18.6103 4.63917 16.7802 4.63917 16.7802C4.18417 15.5952 3.52833 15.2799 3.52833 15.2799C2.62083 14.6434 3.5975 14.657 3.5975 14.657C4.60167 14.7288 5.13 15.7139 5.13 15.7139C6.02167 17.2809 7.46917 16.8281 8.04 16.5658C8.12917 15.9036 8.38833 15.4508 8.675 15.1953C6.45417 14.9347 4.11917 14.0555 4.11917 10.1279C4.11917 9.00774 4.51 8.09353 5.14917 7.37584C5.04583 7.11695 4.70333 6.07373 5.24667 4.66226C5.24667 4.66226 6.08667 4.38714 7.9975 5.71317C8.795 5.4859 9.65 5.37227 10.5 5.36799C11.35 5.37227 12.2058 5.4859 13.005 5.71317C14.9142 4.38714 15.7525 4.66226 15.7525 4.66226C16.2967 6.07458 15.9542 7.11781 15.8508 7.37584C16.4925 8.09353 16.88 9.00859 16.88 10.1279C16.88 14.0658 14.5408 14.933 12.3142 15.1868C12.6725 15.5046 13 16.1283 13 17.0852V19.8988C13 20.1713 13.16 20.4917 13.6675 20.3909C17.6383 19.0333 20.5 15.191 20.5 10.6627C20.5 5.0006 16.0225 0.409912 10.5 0.409912Z" fill="white"/>
</g>
<defs>
<clipPath id="clip0_25_371">
<rect width="20" height="20" fill="white" transform="translate(0.5 0.409912)"/>
</clipPath>
</defs>
</svg>
