<svg width="21" height="21" viewBox="0 0 21 21" fill="none" xmlns="http://www.w3.org/2000/svg">
<mask id="mask0_25_384" style="mask-type:luminance" maskUnits="userSpaceOnUse" x="1" y="1" width="19" height="19">
<path d="M19.5 1.40991H1.5V19.4099H19.5V1.40991Z" fill="white"/>
</mask>
<g mask="url(#mask0_25_384)">
<path d="M1.5 2.69916C1.5 1.98704 2.09175 1.40991 2.82187 1.40991H18.1781C18.9082 1.40991 19.5 1.98704 19.5 2.69916V18.1207C19.5 18.8328 18.9082 19.4099 18.1781 19.4099H2.82187C2.09175 19.4099 1.5 18.8328 1.5 18.1207V2.69916ZM7.06087 16.4782V8.35004H4.35975V16.4782H7.06087ZM5.71088 7.23966C6.6525 7.23966 7.23862 6.61641 7.23862 5.83566C7.22175 5.03804 6.65363 4.43166 5.72888 4.43166C4.80413 4.43166 4.2 5.03916 4.2 5.83566C4.2 6.61641 4.78613 7.23966 5.69287 7.23966H5.71088ZM11.2324 16.4782V11.9388C11.2324 11.6958 11.2504 11.4528 11.3224 11.2795C11.517 10.7946 11.9614 10.2918 12.7084 10.2918C13.686 10.2918 14.0764 11.0365 14.0764 12.13V16.4782H16.7775V11.8161C16.7775 9.31866 15.4455 8.15766 13.668 8.15766C12.2347 8.15766 11.5924 8.94516 11.2324 9.49978V9.52791H11.2144C11.2204 9.51852 11.2263 9.50914 11.2324 9.49978V8.35004H8.53237C8.56612 9.11279 8.53237 16.4782 8.53237 16.4782H11.2324Z" fill="white"/>
</g>
</svg>
