<svg width="31" height="26" viewBox="0 0 31 26" fill="none" xmlns="http://www.w3.org/2000/svg">
<path d="M29.7528 17.8615L27.2408 13.8415C27.2408 13.8415 27.2318 13.8245 27.2258 13.8175L27.0278 13.5015C26.8456 13.2078 26.5914 12.9654 26.2894 12.7974C25.9873 12.6294 25.6474 12.5413 25.3018 12.5415L21.2558 12.5275L20.9738 12.9805L16.1388 20.7165L15.8718 21.1445L17.8988 24.3795C18.2728 24.9815 18.9188 25.3405 19.6308 25.3405H25.3008C25.9998 25.3405 26.6608 24.9725 27.0308 24.3815L27.2308 24.0615C27.2308 24.0615 27.2388 24.0535 27.2408 24.0495L29.7558 20.0245C29.9582 19.6999 30.0655 19.325 30.0655 18.9425C30.0655 18.56 29.9582 18.1851 29.7558 17.8605H29.7538L29.7528 17.8615ZM28.9868 19.5445L26.4708 23.5695C26.4608 23.5895 26.4468 23.6035 26.4358 23.6195C26.4004 23.6591 26.3562 23.6898 26.3068 23.7093C26.2573 23.7287 26.2041 23.7363 26.1512 23.7315C26.0983 23.7266 26.0473 23.7094 26.0022 23.6813C25.9572 23.6532 25.9193 23.6149 25.8918 23.5695L23.3768 19.5425C23.3198 19.4525 23.276 19.3549 23.2468 19.2525C23.2031 19.1007 23.1919 18.9414 23.2138 18.785C23.2356 18.6286 23.2901 18.4785 23.3738 18.3445L25.8858 14.3245L25.8918 14.3145C25.9518 14.2245 26.0268 14.1835 26.0918 14.1705C26.1178 14.1625 26.1408 14.1605 26.1588 14.1575H26.1868C26.2448 14.1575 26.3888 14.1755 26.4788 14.3215L28.9898 18.3415C29.2198 18.7075 29.2198 19.1785 28.9898 19.5445H28.9868ZM22.3208 8.13549C22.5223 7.81057 22.629 7.43583 22.629 7.05349C22.629 6.67116 22.5223 6.29642 22.3208 5.97149L19.8088 1.95149L19.5988 1.61349C19.4159 1.31916 19.1607 1.07652 18.8575 0.908665C18.5544 0.740805 18.2133 0.653306 17.8668 0.654492H12.1968C11.4898 0.654492 10.8428 1.01449 10.4658 1.61449L0.312764 17.8655C0.108773 18.1891 0.000354717 18.5637 8.68919e-07 18.9462C-0.000352979 19.3287 0.107372 19.7035 0.310764 20.0275L3.03376 24.3865C3.21613 24.6809 3.47091 24.9236 3.77378 25.0915C4.07664 25.2594 4.41748 25.3468 4.76376 25.3455H10.4338C11.1458 25.3455 11.7918 24.9855 12.1658 24.3855L12.3738 24.0555V24.0515L12.3768 24.0445L14.4008 20.8075L20.3998 11.2075L22.3168 8.13749L22.3208 8.13649V8.13549ZM21.7278 7.05349C21.7278 7.26049 21.6698 7.46949 21.5528 7.65449L11.6068 23.5725C11.576 23.6218 11.5331 23.6624 11.4821 23.6904C11.4312 23.7184 11.3739 23.7329 11.3158 23.7325C11.2575 23.7329 11.2001 23.7184 11.149 23.6904C11.0979 23.6624 11.0548 23.6218 11.0238 23.5725L8.51076 19.5455C8.39891 19.365 8.33965 19.1568 8.33965 18.9445C8.33965 18.7321 8.39891 18.524 8.51076 18.3435L18.4558 2.43049C18.4862 2.3804 18.5291 2.33905 18.5803 2.31048C18.6314 2.28191 18.6892 2.2671 18.7478 2.26749C18.8058 2.26749 18.9498 2.28449 19.0408 2.43149L21.5528 6.45149C21.6698 6.63649 21.7278 6.84549 21.7278 7.05349Z" fill="#1C1D1F"/>
</svg>
